<?xml version="1.0" encoding="UTF-8" standalone="no"?>
<!DOCTYPE svg PUBLIC "-//W3C//DTD SVG 1.1//EN"
 "http://www.w3.org/Graphics/SVG/1.1/DTD/svg11.dtd">
<!-- Generated by graphviz version 2.47.0 (20210316.0004)
 -->
<!-- Title: dependencies Pages: 1 -->
<svg width="1930pt" height="298pt"
 viewBox="0.00 0.00 1930.00 298.00" xmlns="http://www.w3.org/2000/svg" xmlns:xlink="http://www.w3.org/1999/xlink">
<g id="graph0" class="graph" transform="scale(1 1) rotate(0) translate(4 294)">
<title>dependencies</title>
<polygon fill="white" stroke="transparent" points="-4,4 -4,-294 1926,-294 1926,4 -4,4"/>
<text text-anchor="start" x="940.01" y="-42.4" font-family="Times-12" font-weight="bold" font-size="14.00">Legend</text>
<polygon fill="#ffffb3" stroke="transparent" points="727,-10 727,-30 747,-30 747,-10 727,-10"/>
<text text-anchor="start" x="750.63" y="-15.4" font-family="Times-12" font-size="14.00"> &#160;Declarations</text>
<polygon fill="#8dd3c7" stroke="transparent" points="840,-10 840,-30 860,-30 860,-10 840,-10"/>
<text text-anchor="start" x="863.73" y="-15.4" font-family="Times-12" font-size="14.00"> &#160;Module</text>
<polygon fill="#80b1d3" stroke="transparent" points="926,-10 926,-30 946,-30 946,-10 926,-10"/>
<text text-anchor="start" x="949.78" y="-15.4" font-family="Times-12" font-size="14.00"> &#160;Bootstrap</text>
<polygon fill="#fdb462" stroke="transparent" points="1023,-10 1023,-30 1043,-30 1043,-10 1023,-10"/>
<text text-anchor="start" x="1046.67" y="-15.4" font-family="Times-12" font-size="14.00"> &#160;Providers</text>
<polygon fill="#fb8072" stroke="transparent" points="1119,-10 1119,-30 1139,-30 1139,-10 1119,-10"/>
<text text-anchor="start" x="1142.73" y="-15.4" font-family="Times-12" font-size="14.00"> &#160;Exports</text>
<g id="clust1" class="cluster">
<title>cluster_AppModule</title>
<polygon fill="none" stroke="black" stroke-dasharray="1,5" points="168,-70 168,-274 535,-274 535,-70 168,-70"/>
</g>
<g id="clust3" class="cluster">
<title>cluster_AppModule_imports</title>
<polygon fill="none" stroke="black" points="314,-78 314,-206 527,-206 527,-78 314,-78"/>
</g>
<g id="clust6" class="cluster">
<title>cluster_AppModule_providers</title>
<polygon fill="none" stroke="black" points="176,-154 176,-206 306,-206 306,-154 176,-154"/>
</g>
<g id="clust7" class="cluster">
<title>cluster_AuthModule</title>
<polygon fill="none" stroke="black" stroke-dasharray="1,5" points="543,-146 543,-214 807,-214 807,-146 543,-146"/>
</g>
<g id="clust10" class="cluster">
<title>cluster_AuthModule_exports</title>
<polygon fill="none" stroke="black" points="693,-154 693,-206 799,-206 799,-154 693,-154"/>
</g>
<g id="clust12" class="cluster">
<title>cluster_AuthModule_providers</title>
<polygon fill="none" stroke="black" points="551,-154 551,-206 685,-206 685,-154 551,-154"/>
</g>
<g id="clust13" class="cluster">
<title>cluster_PostsModule</title>
<polygon fill="none" stroke="black" stroke-dasharray="1,5" points="8,-70 8,-138 160,-138 160,-70 8,-70"/>
</g>
<g id="clust18" class="cluster">
<title>cluster_PostsModule_providers</title>
<polygon fill="none" stroke="black" points="16,-78 16,-130 152,-130 152,-78 16,-78"/>
</g>
<g id="clust19" class="cluster">
<title>cluster_TemplatePlaygroundModule</title>
<polygon fill="none" stroke="black" stroke-dasharray="1,5" points="1097,-70 1097,-282 1914,-282 1914,-70 1097,-70"/>
</g>
<g id="clust20" class="cluster">
<title>cluster_TemplatePlaygroundModule_declarations</title>
<polygon fill="none" stroke="black" points="1692,-78 1692,-130 1906,-130 1906,-78 1692,-78"/>
</g>
<g id="clust24" class="cluster">
<title>cluster_TemplatePlaygroundModule_bootstrap</title>
<polygon fill="none" stroke="black" points="1367,-222 1367,-274 1585,-274 1585,-222 1367,-222"/>
</g>
<g id="clust25" class="cluster">
<title>cluster_TemplatePlaygroundModule_providers</title>
<polygon fill="none" stroke="black" points="1105,-78 1105,-130 1684,-130 1684,-78 1105,-78"/>
</g>
<g id="clust26" class="cluster">
<title>cluster_UsersModule</title>
<polygon fill="none" stroke="black" stroke-dasharray="1,5" points="815,-146 815,-214 1089,-214 1089,-146 815,-146"/>
</g>
<g id="clust29" class="cluster">
<title>cluster_UsersModule_exports</title>
<polygon fill="none" stroke="black" points="971,-154 971,-206 1081,-206 1081,-154 971,-154"/>
</g>
<g id="clust31" class="cluster">
<title>cluster_UsersModule_providers</title>
<polygon fill="none" stroke="black" points="823,-154 823,-206 963,-206 963,-154 823,-154"/>
</g>
<!-- AuthModule -->
<g id="node1" class="node">
<title>AuthModule</title>
<polygon fill="#8dd3c7" stroke="black" points="409.55,-122 406.55,-126 385.55,-126 382.55,-122 322.45,-122 322.45,-86 409.55,-86 409.55,-122"/>
<text text-anchor="middle" x="366" y="-99.8" font-family="Times,serif" font-size="14.00">AuthModule</text>
</g>
<!-- AppModule -->
<g id="node4" class="node">
<title>AppModule</title>
<polygon fill="#8dd3c7" stroke="black" points="440.66,-266 437.66,-270 416.66,-270 413.66,-266 357.34,-266 357.34,-230 440.66,-230 440.66,-266"/>
<text text-anchor="middle" x="399" y="-243.8" font-family="Times,serif" font-size="14.00">AppModule</text>
</g>
<!-- AuthModule&#45;&gt;AppModule -->
<g id="edge1" class="edge">
<title>AuthModule&#45;&gt;AppModule</title>
<path fill="none" stroke="black" d="M409.74,-110C414.01,-110 416.8,-110 416.8,-110 416.8,-110 416.8,-219.96 416.8,-219.96"/>
<polygon fill="black" stroke="black" points="413.3,-219.96 416.8,-229.96 420.3,-219.96 413.3,-219.96"/>
</g>
<!-- AuthService  -->
<g id="node6" class="node">
<title>AuthService </title>
<polygon fill="#fb8072" stroke="black" points="790.98,-198 701.02,-198 701.02,-162 790.98,-162 790.98,-198"/>
<text text-anchor="middle" x="746" y="-175.8" font-family="Times,serif" font-size="14.00">AuthService </text>
</g>
<!-- AuthModule&#45;&gt;AuthService  -->
<g id="edge5" class="edge">
<title>AuthModule&#45;&gt;AuthService </title>
<path fill="none" stroke="black" stroke-dasharray="5,2" d="M366.11,-122.11C366.11,-131.9 366.11,-142 366.11,-142 366.11,-142 746,-142 746,-142 746,-142 746,-151.89 746,-151.89"/>
<polygon fill="black" stroke="black" points="742.5,-151.89 746,-161.89 749.5,-151.89 742.5,-151.89"/>
</g>
<!-- PostsModule -->
<g id="node2" class="node">
<title>PostsModule</title>
<polygon fill="#8dd3c7" stroke="black" points="411.61,-198 408.61,-202 387.61,-202 384.61,-198 322.39,-198 322.39,-162 411.61,-162 411.61,-198"/>
<text text-anchor="middle" x="367" y="-175.8" font-family="Times,serif" font-size="14.00">PostsModule</text>
</g>
<!-- PostsModule&#45;&gt;AppModule -->
<g id="edge2" class="edge">
<title>PostsModule&#45;&gt;AppModule</title>
<path fill="none" stroke="black" d="M384.36,-198.22C384.36,-198.22 384.36,-219.73 384.36,-219.73"/>
<polygon fill="black" stroke="black" points="380.86,-219.73 384.36,-229.73 387.86,-219.73 380.86,-219.73"/>
</g>
<!-- UsersModule -->
<g id="node3" class="node">
<title>UsersModule</title>
<polygon fill="#8dd3c7" stroke="black" points="518.92,-122 515.92,-126 494.92,-126 491.92,-122 427.08,-122 427.08,-86 518.92,-86 518.92,-122"/>
<text text-anchor="middle" x="473" y="-99.8" font-family="Times,serif" font-size="14.00">UsersModule</text>
</g>
<!-- UsersModule&#45;&gt;PostsModule -->
<g id="edge7" class="edge">
<title>UsersModule&#45;&gt;PostsModule</title>
<path fill="none" stroke="black" d="M431.8,-122.03C431.8,-142.77 431.8,-174 431.8,-174 431.8,-174 421.65,-174 421.65,-174"/>
<polygon fill="black" stroke="black" points="421.65,-170.5 411.65,-174 421.65,-177.5 421.65,-170.5"/>
</g>
<!-- UsersModule&#45;&gt;AppModule -->
<g id="edge3" class="edge">
<title>UsersModule&#45;&gt;AppModule</title>
<path fill="none" stroke="black" d="M436.32,-122.24C436.32,-122.24 436.32,-219.91 436.32,-219.91"/>
<polygon fill="black" stroke="black" points="432.82,-219.91 436.32,-229.91 439.82,-219.91 432.82,-219.91"/>
</g>
<!-- UsersService  -->
<g id="node15" class="node">
<title>UsersService </title>
<polygon fill="#fb8072" stroke="black" points="1072.85,-198 979.15,-198 979.15,-162 1072.85,-162 1072.85,-198"/>
<text text-anchor="middle" x="1026" y="-175.8" font-family="Times,serif" font-size="14.00">UsersService </text>
</g>
<!-- UsersModule&#45;&gt;UsersService  -->
<g id="edge14" class="edge">
<title>UsersModule&#45;&gt;UsersService </title>
<path fill="none" stroke="black" stroke-dasharray="5,2" d="M518.72,-98C651.22,-98 1026,-98 1026,-98 1026,-98 1026,-151.8 1026,-151.8"/>
<polygon fill="black" stroke="black" points="1022.5,-151.8 1026,-161.8 1029.5,-151.8 1022.5,-151.8"/>
</g>
<!-- AppService -->
<g id="node5" class="node">
<title>AppService</title>
<ellipse fill="#fdb462" stroke="black" cx="241" cy="-180" rx="56.74" ry="18"/>
<text text-anchor="middle" x="241" y="-175.8" font-family="Times,serif" font-size="14.00">AppService</text>
</g>
<!-- AppService&#45;&gt;AppModule -->
<g id="edge4" class="edge">
<title>AppService&#45;&gt;AppModule</title>
<path fill="none" stroke="black" d="M241,-198.22C241,-218.37 241,-248 241,-248 241,-248 347.07,-248 347.07,-248"/>
<polygon fill="black" stroke="black" points="347.07,-251.5 357.07,-248 347.07,-244.5 347.07,-251.5"/>
</g>
<!-- AuthService -->
<g id="node7" class="node">
<title>AuthService</title>
<ellipse fill="#fdb462" stroke="black" cx="618" cy="-180" rx="59.11" ry="18"/>
<text text-anchor="middle" x="618" y="-175.8" font-family="Times,serif" font-size="14.00">AuthService</text>
</g>
<!-- AuthService&#45;&gt;AuthModule -->
<g id="edge6" class="edge">
<title>AuthService&#45;&gt;AuthModule</title>
<path fill="none" stroke="black" d="M561.85,-186C503.94,-186 422.05,-186 422.05,-186 422.05,-186 422.05,-98 422.05,-98 422.05,-98 419.61,-98 419.61,-98"/>
<polygon fill="black" stroke="black" points="419.61,-94.5 409.61,-98 419.61,-101.5 419.61,-94.5"/>
</g>
<!-- PostsService -->
<g id="node8" class="node">
<title>PostsService</title>
<ellipse fill="#fdb462" stroke="black" cx="84" cy="-104" rx="60.27" ry="18"/>
<text text-anchor="middle" x="84" y="-99.8" font-family="Times,serif" font-size="14.00">PostsService</text>
</g>
<!-- PostsService&#45;&gt;PostsModule -->
<g id="edge8" class="edge">
<title>PostsService&#45;&gt;PostsModule</title>
<path fill="none" stroke="black" d="M144.54,-104C211.46,-104 309.92,-104 309.92,-104 309.92,-104 309.92,-180 309.92,-180 309.92,-180 312.31,-180 312.31,-180"/>
<polygon fill="black" stroke="black" points="312.31,-183.5 322.31,-180 312.31,-176.5 312.31,-183.5"/>
</g>
<!-- TemplatePlaygroundComponent -->
<g id="node9" class="node">
<title>TemplatePlaygroundComponent</title>
<polygon fill="#ffffb3" stroke="black" points="1898.25,-122 1699.75,-122 1699.75,-86 1898.25,-86 1898.25,-122"/>
<text text-anchor="middle" x="1799" y="-99.8" font-family="Times,serif" font-size="14.00">TemplatePlaygroundComponent</text>
</g>
<!-- TemplatePlaygroundModule -->
<g id="node10" class="node">
<title>TemplatePlaygroundModule</title>
<polygon fill="#8dd3c7" stroke="black" points="1564.47,-198 1561.47,-202 1540.47,-202 1537.47,-198 1387.53,-198 1387.53,-162 1564.47,-162 1564.47,-198"/>
<text text-anchor="middle" x="1476" y="-175.8" font-family="Times,serif" font-size="14.00">TemplatePlaygroundModule</text>
</g>
<!-- TemplatePlaygroundComponent&#45;&gt;TemplatePlaygroundModule -->
<g id="edge9" class="edge">
<title>TemplatePlaygroundComponent&#45;&gt;TemplatePlaygroundModule</title>
<path fill="none" stroke="black" d="M1799,-122.01C1799,-144.49 1799,-180 1799,-180 1799,-180 1574.69,-180 1574.69,-180"/>
<polygon fill="black" stroke="black" points="1574.69,-176.5 1564.69,-180 1574.69,-183.5 1574.69,-176.5"/>
</g>
<!-- TemplatePlaygroundComponent  -->
<g id="node11" class="node">
<title>TemplatePlaygroundComponent </title>
<polygon fill="#80b1d3" stroke="black" points="1577.25,-266 1374.75,-266 1374.75,-230 1577.25,-230 1577.25,-266"/>
<text text-anchor="middle" x="1476" y="-243.8" font-family="Times,serif" font-size="14.00">TemplatePlaygroundComponent </text>
</g>
<!-- TemplatePlaygroundModule&#45;&gt;TemplatePlaygroundComponent  -->
<g id="edge10" class="edge">
<title>TemplatePlaygroundModule&#45;&gt;TemplatePlaygroundComponent </title>
<path fill="none" stroke="black" stroke-dasharray="1,5" d="M1476,-198.22C1476,-198.22 1476,-219.73 1476,-219.73"/>
<polygon fill="black" stroke="black" points="1472.5,-219.73 1476,-229.73 1479.5,-219.73 1472.5,-219.73"/>
</g>
<!-- HbsRenderService -->
<g id="node12" class="node">
<title>HbsRenderService</title>
<ellipse fill="#fdb462" stroke="black" cx="1196" cy="-104" rx="83.37" ry="18"/>
<text text-anchor="middle" x="1196" y="-99.8" font-family="Times,serif" font-size="14.00">HbsRenderService</text>
</g>
<!-- HbsRenderService&#45;&gt;TemplatePlaygroundModule -->
<g id="edge11" class="edge">
<title>HbsRenderService&#45;&gt;TemplatePlaygroundModule</title>
<path fill="none" stroke="black" d="M1196,-122.01C1196,-144.49 1196,-180 1196,-180 1196,-180 1377.41,-180 1377.41,-180"/>
<polygon fill="black" stroke="black" points="1377.41,-183.5 1387.41,-180 1377.41,-176.5 1377.41,-183.5"/>
</g>
<!-- TemplateEditorService -->
<g id="node13" class="node">
<title>TemplateEditorService</title>
<ellipse fill="#fdb462" stroke="black" cx="1575" cy="-104" rx="100.7" ry="18"/>
<text text-anchor="middle" x="1575" y="-99.8" font-family="Times,serif" font-size="14.00">TemplateEditorService</text>
</g>
<!-- TemplateEditorService&#45;&gt;TemplatePlaygroundModule -->
<g id="edge12" class="edge">
<title>TemplateEditorService&#45;&gt;TemplatePlaygroundModule</title>
<path fill="none" stroke="black" d="M1519.44,-119.02C1519.44,-119.02 1519.44,-151.8 1519.44,-151.8"/>
<polygon fill="black" stroke="black" points="1515.94,-151.8 1519.44,-161.8 1522.94,-151.8 1515.94,-151.8"/>
</g>
<!-- ZipExportService -->
<g id="node14" class="node">
<title>ZipExportService</title>
<ellipse fill="#fdb462" stroke="black" cx="1377" cy="-104" rx="79.87" ry="18"/>
<text text-anchor="middle" x="1377" y="-99.8" font-family="Times,serif" font-size="14.00">ZipExportService</text>
</g>
<!-- ZipExportService&#45;&gt;TemplatePlaygroundModule -->
<g id="edge13" class="edge">
<title>ZipExportService&#45;&gt;TemplatePlaygroundModule</title>
<path fill="none" stroke="black" d="M1422.1,-119.02C1422.1,-119.02 1422.1,-151.8 1422.1,-151.8"/>
<polygon fill="black" stroke="black" points="1418.6,-151.8 1422.1,-161.8 1425.6,-151.8 1418.6,-151.8"/>
</g>
<!-- UsersService -->
<g id="node16" class="node">
<title>UsersService</title>
<ellipse fill="#fdb462" stroke="black" cx="893" cy="-180" rx="61.95" ry="18"/>
<text text-anchor="middle" x="893" y="-175.8" font-family="Times,serif" font-size="14.00">UsersService</text>
</g>
<!-- UsersService&#45;&gt;UsersModule -->
<g id="edge15" class="edge">
<title>UsersService&#45;&gt;UsersModule</title>
<path fill="none" stroke="black" d="M893,-161.97C893,-141.23 893,-110 893,-110 893,-110 528.75,-110 528.75,-110"/>
<polygon fill="black" stroke="black" points="528.75,-106.5 518.75,-110 528.75,-113.5 528.75,-106.5"/>
</g>
</g>
</svg>
